<?xml version="1.0" standalone="no"?>
<!DOCTYPE svg PUBLIC "-//W3C//DTD SVG 20010904//EN"
 "http://www.w3.org/TR/2001/REC-SVG-20010904/DTD/svg10.dtd">
<svg version="1.0" xmlns="http://www.w3.org/2000/svg"
 width="700.000000pt" height="700.000000pt" viewBox="0 0 700.000000 700.000000"
 preserveAspectRatio="xMidYMid meet">
<metadata>
Created by potrace 1.14, written by Peter Selinger 2001-2017
</metadata>
<g transform="translate(0.000000,700.000000) scale(0.100000,-0.100000)"
fill="#000000" stroke="none">
<path d="M3460 6513 c-143 -16 -247 -61 -332 -145 -135 -131 -156 -318 -54
-468 53 -78 233 -271 336 -360 14 -12 39 -34 57 -50 l31 -29 49 41 c26 22 116
109 198 193 207 210 250 286 243 425 -5 98 -41 175 -118 250 -101 100 -269
158 -410 143z"/>
<path d="M2830 6120 c0 -21 -5 -30 -17 -31 -253 -16 -385 -40 -582 -106 -722
-240 -1223 -872 -1306 -1648 -1 -16 -3 -58 -4 -92 -1 -63 -1 -63 -30 -63 -29
0 -49 -24 -30 -36 9 -5 150 -8 232 -5 10 1 17 9 17 21 0 16 -6 19 -31 16 l-32
-4 6 107 c14 247 77 473 198 707 293 570 873 940 1517 969 l62 3 0 -34 c0 -19
3 -34 8 -34 25 1 30 22 29 138 -1 111 -3 122 -19 122 -13 0 -18 -8 -18 -30z"/>
<path d="M4133 6028 c0 -115 5 -137 29 -138 4 0 8 15 10 33 3 31 5 32 48 32
66 1 270 -24 318 -39 9 -3 28 -7 42 -10 14 -3 61 -16 105 -29 525 -162 958
-569 1150 -1082 40 -107 81 -256 91 -333 3 -26 8 -50 11 -54 2 -4 7 -57 10
-118 l6 -110 -24 -1 c-13 -1 -27 -1 -31 0 -5 0 -8 -8 -8 -19 0 -11 3 -20 8
-21 10 -1 180 -1 219 0 27 1 30 4 26 22 -5 16 -12 20 -34 17 l-29 -5 -1 61
c-1 76 -6 131 -21 221 -6 39 -12 77 -13 85 -11 75 -67 254 -120 378 -284 673
-940 1127 -1685 1168 -25 1 -51 2 -57 3 -7 1 -13 14 -13 31 0 22 -5 30 -18 30
-17 0 -18 -11 -19 -122z"/>
<path d="M2041 5344 c-155 -52 -255 -159 -297 -317 -11 -43 -14 -295 -14
-1522 0 -955 4 -1485 11 -1514 27 -117 128 -249 229 -298 113 -55 39 -53 1529
-53 1480 0 1419 -2 1528 51 60 30 161 130 191 189 55 112 52 10 52 1610 0
1011 -3 1495 -10 1527 -36 161 -169 295 -334 339 -42 11 -298 14 -1431 14
l-1380 -1 -74 -25z"/>
<path d="M908 3985 c-115 -31 -208 -114 -268 -240 -61 -126 -71 -242 -35 -403
12 -54 78 -164 127 -213 31 -31 78 -64 117 -83 57 -26 77 -31 146 -30 117 0
170 26 315 152 126 111 325 323 318 341 -4 14 -122 144 -193 214 -160 158
-265 238 -339 258 -60 16 -136 18 -188 4z"/>
<path d="M5935 3989 c-42 -9 -98 -33 -138 -61 -106 -72 -434 -402 -425 -427
10 -30 211 -238 317 -331 35 -30 73 -63 85 -74 12 -10 50 -32 85 -49 55 -26
77 -31 145 -31 70 0 90 4 146 31 301 144 358 605 105 846 -84 81 -213 120
-320 96z"/>
<path d="M857 2856 c-8 -19 1 -26 35 -26 27 0 28 -1 29 -57 6 -440 218 -934
541 -1263 272 -278 629 -476 983 -546 11 -2 31 -6 45 -9 53 -11 188 -26 260
-29 46 -2 75 -8 76 -15 1 -6 2 -20 3 -32 1 -14 7 -19 19 -17 15 3 17 18 19
125 1 112 0 121 -18 126 -16 4 -19 0 -19 -27 l0 -33 -72 3 c-243 9 -480 71
-711 185 -54 27 -119 62 -143 79 -25 16 -47 30 -50 30 -3 0 -10 4 -17 10 -7 5
-46 35 -87 66 -95 71 -269 247 -341 344 -222 301 -350 658 -353 980 l-1 85 28
-3 c22 -3 27 1 27 17 0 20 -5 21 -124 21 -97 0 -125 -3 -129 -14z"/>
<path d="M3485 1530 c-5 -5 -89 -86 -186 -182 -249 -246 -296 -324 -287 -471
7 -102 42 -176 119 -249 162 -152 418 -185 628 -80 76 38 165 126 198 198 25
52 28 71 27 154 0 152 -31 199 -288 455 -153 152 -195 187 -211 175z"/>
</g>
</svg>
