<?xml version="1.0" standalone="no"?>
<!DOCTYPE svg PUBLIC "-//W3C//DTD SVG 20010904//EN"
 "http://www.w3.org/TR/2001/REC-SVG-20010904/DTD/svg10.dtd">
<svg version="1.0" xmlns="http://www.w3.org/2000/svg"
 width="1081.000000pt" height="1081.000000pt" viewBox="0 0 1081.000000 1081.000000"
 preserveAspectRatio="xMidYMid meet">
<metadata>
Created by potrace 1.14, written by Peter Selinger 2001-2017
</metadata>
<g transform="translate(0.000000,1081.000000) scale(0.100000,-0.100000)"
fill="#000000" stroke="none">
<path d="M6229 8996 c-2 -2 -33 -6 -69 -10 -378 -35 -722 -190 -971 -436 -127
-126 -174 -189 -251 -340 -144 -282 -181 -636 -96 -934 6 -23 12 -45 14 -51 1
-5 22 -78 48 -162 25 -83 46 -154 46 -156 0 -3 -46 -46 -102 -94 -57 -48 -105
-90 -108 -93 -3 -3 -34 -30 -70 -60 -36 -30 -70 -59 -76 -65 -6 -5 -37 -32
-69 -60 -32 -27 -106 -92 -165 -142 -59 -51 -113 -93 -120 -93 -7 0 -81 36
-164 79 -190 99 -298 144 -423 176 -380 96 -765 21 -1093 -212 -60 -43 -169
-145 -225 -209 -88 -103 -99 -118 -183 -249 -33 -53 -114 -231 -146 -324 -39
-111 -80 -299 -92 -416 -19 -196 -6 -447 33 -630 8 -38 16 -80 19 -92 2 -13
23 -78 45 -145 193 -582 638 -1029 1156 -1162 57 -15 77 -19 158 -32 60 -9
236 -11 302 -3 120 15 158 21 176 30 9 6 17 7 17 5 0 -3 19 1 41 9 54 19 63
19 54 -2 -14 -37 -15 -147 -1 -199 50 -190 214 -284 415 -238 115 26 181 70
421 284 36 31 90 79 120 105 30 26 91 80 135 119 94 84 157 140 250 221 38 33
76 67 85 75 9 8 45 40 80 71 36 31 78 69 94 83 15 15 31 25 34 22 5 -6 6 -23
16 -231 12 -267 17 -354 22 -405 42 -455 298 -843 694 -1053 142 -75 351 -137
525 -156 84 -9 322 -7 390 4 225 34 390 84 585 178 581 279 999 816 1105 1422
19 111 24 306 11 435 -51 507 -400 941 -887 1104 -62 21 -446 115 -529 130
-14 2 -45 9 -70 14 -25 6 -63 13 -85 17 -22 3 -55 9 -74 13 l-33 7 63 55 c35
30 71 62 79 70 9 8 45 39 80 69 134 113 229 217 260 283 60 129 40 261 -54
353 -32 31 -73 59 -104 71 -28 10 -50 23 -49 29 1 5 68 53 149 107 460 306
670 730 625 1265 -4 45 -9 87 -12 95 -2 7 -6 25 -9 39 -23 140 -100 328 -211
517 -123 210 -380 456 -634 610 -186 112 -494 227 -686 256 -62 10 -97 15
-130 22 -34 6 -351 15 -356 10z"/>
</g>
</svg>
