<?xml version="1.0" standalone="no"?>
<!DOCTYPE svg PUBLIC "-//W3C//DTD SVG 20010904//EN"
 "http://www.w3.org/TR/2001/REC-SVG-20010904/DTD/svg10.dtd">
<svg version="1.0" xmlns="http://www.w3.org/2000/svg"
 width="700.000000pt" height="700.000000pt" viewBox="0 0 700.000000 700.000000"
 preserveAspectRatio="xMidYMid meet">
<metadata>
Created by potrace 1.14, written by Peter Selinger 2001-2017
</metadata>
<g transform="translate(0.000000,700.000000) scale(0.100000,-0.100000)"
fill="#000000" stroke="none">
<path d="M4297 6824 c-1 -1 -38 -4 -82 -8 -91 -7 -133 -13 -190 -28 -22 -6
-49 -12 -60 -13 -80 -13 -235 -73 -354 -136 -246 -131 -431 -319 -547 -554
-51 -105 -98 -244 -109 -330 -3 -22 -8 -56 -10 -75 -16 -116 -2 -298 34 -440
20 -83 120 -412 126 -418 2 -2 -33 -36 -78 -74 -45 -39 -106 -92 -136 -117
-84 -72 -165 -142 -217 -188 -71 -61 -138 -119 -159 -135 -28 -22 -4 -31 -270
104 -180 92 -234 114 -341 143 -126 35 -138 36 -299 41 -161 4 -260 -10 -400
-57 -283 -95 -516 -284 -697 -565 -78 -122 -155 -307 -193 -469 -47 -193 -54
-263 -50 -475 2 -102 6 -196 8 -210 3 -14 8 -41 11 -60 15 -101 56 -256 100
-380 33 -92 148 -308 214 -400 124 -176 352 -384 517 -472 164 -87 316 -137
475 -156 102 -12 280 -6 365 12 91 19 217 56 229 68 20 17 23 6 9 -44 -28
-105 -3 -229 59 -284 48 -44 90 -59 169 -59 127 0 185 36 479 299 19 17 130
114 245 216 188 165 253 223 289 255 6 6 45 39 86 75 41 35 83 73 94 83 10 10
19 17 21 15 1 -2 5 -88 9 -193 4 -104 8 -219 11 -255 2 -36 6 -110 10 -165 10
-174 32 -282 86 -421 111 -286 319 -509 600 -645 85 -42 241 -94 309 -104 24
-4 47 -8 50 -10 26 -16 277 -24 400 -12 264 25 545 123 777 273 346 223 598
524 742 886 49 125 80 243 99 383 14 97 6 355 -12 445 -50 241 -155 442 -313
605 -139 144 -257 224 -434 294 -91 36 -492 137 -627 157 -20 3 -53 9 -72 14
-34 9 -126 22 -162 24 -30 1 -40 -10 142 151 182 160 187 165 229 205 96 94
128 197 92 293 -26 68 -127 136 -206 139 -19 1 -35 4 -35 7 0 3 66 49 147 101
186 120 232 154 316 238 335 330 446 805 296 1267 -11 33 -24 69 -28 80 -46
102 -69 148 -107 211 -275 467 -801 793 -1386 860 -52 6 -266 13 -271 8z"/>
</g>
</svg>
