<svg xmlns="http://www.w3.org/2000/svg" viewBox="0 0 1080 1080"><title>logo</title><g id="a24e5a2b-dc69-44a1-8609-d238e90c455e" data-name="logo"><path d="M938.66,332.78C979.3,221.62,906.09,92.7,775.14,44.83s-270,3.44-310.67,114.6c-15.48,42.35-14.42,87.27,0,129.32.53,1.83,12.85,44.7,21.37,67.87a792.77,792.77,0,0,0,52.28,113.51q25.46,41.88,50.92,83.76l.46.53,92.94-31.18a792.58,792.58,0,0,0,113.16-53l59.56-38.62C893.38,408.79,923.18,375.14,938.66,332.78Z" fill="#052238"/><path d="M212.08,372.79C95.5,393.17,20.46,521,44.48,658.37s138,232.14,254.58,211.75c44.41-7.77,82.79-31.15,112-64.69,1.32-1.38,32.29-33.48,48.09-52.44a792.66,792.66,0,0,0,72.16-102l47.09-86,.22-.66-73.47-64.9a792.69,792.69,0,0,0-102.5-71.49l-63.23-32.27C300.56,374,256.51,365,212.08,372.79Z" fill="#052238"/><path d="M608.89,984.32c76,90.77,224.2,91.82,331.13,2.36s132-235.58,56.09-326.35c-28.93-34.58-68.37-56.13-112-64.62-1.86-.47-45.14-11.23-69.46-15.43A792.24,792.24,0,0,0,690.2,568.79l-98,2.22-.69.14L572,667.22a791.36,791.36,0,0,0-10.65,124.52l3.66,70.89C565.7,907.09,580,949.73,608.89,984.32Z" fill="#052238"/></g><g id="b6e62099-6417-4d23-8204-7f8fe477dcbc" data-name="Logo"><path d="M260,558.81,688,190c18.64-11.94,36.42,0,25,20.49L576.42,479.13H820s38.71,0,0,31.88L398.85,882.08c-29.59,25-50.08,11.38-29.59-27.32L501.3,593H260S221.28,593,260,558.81Z" fill="#7f47dd" stroke="#fff" stroke-miterlimit="10" stroke-width="50"/></g></svg>