<svg xmlns="http://www.w3.org/2000/svg" viewBox="0 0 1080 1080"><title>spinner</title><g id="spinner"><path id="petalo1" d="M819.06,394.94c28.45-77.81-22.8-168-114.46-201.56s-189,2.41-217.47,80.22c-10.84,29.65-10.1,61.09,0,90.52.37,1.29,9,31.29,15,47.51a554.13,554.13,0,0,0,36.59,79.46l35.64,58.63.33.37,65.05-21.82A555.44,555.44,0,0,0,719,491.15l41.69-27C787.37,448.16,808.22,424.6,819.06,394.94Z" fill="#052238"/><path id="petalo2" d="M310.46,423c-81.61,14.27-134.14,103.77-117.33,199.91s96.6,162.5,178.21,148.22c31.09-5.43,58-21.8,78.38-45.28.93-1,22.6-23.44,33.66-36.71a555,555,0,0,0,50.52-71.42l33-60.19L567,557l-51.42-45.43a555.74,555.74,0,0,0-71.76-50L399.58,439C372.39,423.79,341.56,417.51,310.46,423Z" fill="#052238"/><path id="petalo3" d="M588.23,851c53.16,63.54,156.94,64.28,231.78,1.65s92.43-164.9,39.27-228.44C839,600,811.42,584.94,780.87,579c-1.3-.33-31.6-7.86-48.62-10.81a554.86,554.86,0,0,0-87.11-8l-68.6,1.55-.48.09q-6.82,33.63-13.63,67.25A554.65,554.65,0,0,0,555,716.22l2.56,49.62C558,797,568,826.81,588.23,851Z" fill="#052238"/><path id="Rayo" d="M344,553.17,643.58,295c13.06-8.36,25.5,0,17.53,14.34l-95.61,188H736s27.09,0,0,22.31L441.2,779.46c-20.72,17.53-35.06,8-20.72-19.13l92.43-183.26H344S316.9,577.07,344,553.17Z" fill="#7f47dd" stroke="#fff" stroke-miterlimit="10" stroke-width="30"/><g id="cargando"><path d="M227.07,1005.25h58.07v11.62H238.68v34.84h46.46v11.61H227.07Z" fill="#052238"/><path d="M325.79,1063.32v-11.61H337l-11.25-29L310,1063.32H296.75L320,1005.25H331.6l23.22,58.07Z" fill="#052238"/><path d="M389.67,1040.09H378.05v23.23H366.44v-58.07h58.07v34.84H404l20.51,23.23H410.17Zm-11.62-23.22v11.61h34.84v-11.61Z" fill="#052238"/><path d="M494.19,1063.32H436.12v-58.07h58.07v11.62H447.74v34.84h34.84v-11.62H471v-11.61h23.23Z" fill="#052238"/><path d="M534.84,1063.32v-11.61h11.25l-11.25-29-15.79,40.65H505.81L529,1005.25h11.61l23.23,58.07Z" fill="#052238"/><path d="M575.49,1063.32v-58.07h11.62L622,1046.44v-41.19h11.61v58.07H622l-34.84-39.92v39.92Z" fill="#052238"/><path d="M656.79,1051.71h34.84v-34.84H645.18v-11.62h58.07v58.07H645.18v-34.84h11.61Z" fill="#052238"/><path d="M772.93,1005.25v58.07H714.86v-58.07Zm-46.46,11.62v34.84h34.85v-34.84Z" fill="#052238"/></g></g></svg>